# xmcd CD database file
#
# Track frame offsets:
#	150
#	15725
#	21219
#	37423
#	59346
#	69735
#	83314
#	100489
#	110914
#	122123
#	136010
#	148789
#	161015
#	177857
#	193602
#	204078
#
# Disc length: 2846 seconds
#
# Revision: 1
# Processed by: cddbd v1.5.2PL0 Copyright (c) Steve Scherf et al.
# Submitted via: CDex 1.70beta2
#
DISCID=e30b1c10
DTITLE=Eric Clapton - The Slow Hand Emotion
DYEAR=1900
DGENRE=Blues
TTITLE0=Louise (Louise Blues)
TTITLE1=Choker
TTITLE2=Early in The Moring
TTITLE3=The First Time I Met The Blues
TTITLE4=Pounds And Stomps
TTITLE5=Jeff's Blues
TTITLE6=Big Boss Man
TTITLE7=A Certain Girl
TTITLE8=Shanke Drive
TTITLE9=Draggin' My Tail
TTITLE10=Freight Loader
TTITLE11=Highway
TTITLE12=(The Call It) Stormy monday Blues
TTITLE13=Train Kept-A-Rollin'
TTITLE14=West Coast Idea
TTITLE15=Tribute To Elmore
EXTD=
EXTT0=
EXTT1=
EXTT2=
EXTT3=
EXTT4=
EXTT5=
EXTT6=
EXTT7=
EXTT8=
EXTT9=
EXTT10=
EXTT11=
EXTT12=
EXTT13=
EXTT14=
EXTT15=
PLAYORDER=
